v 0 0 -1
v 0.00564265 1.99994 -0.00424576
v 0.871667 -6.03199e-05 -0.504246
v 0.866025 2.38419e-07 0.5
v 0 0 1
v -0.866025 4.76837e-07 0.5
v -0.866025 4.76837e-07 -0.5
v -1.32486 0.19868 0.5
v -0.458831 2.19868 2.38419e-07
v -1.32486 0.19868 -0.5
vn 0.453961 0.396105 -0.798136
vn 0.453961 0.396105 -0.798136
vn 0.453961 0.396105 -0.798136
vn 0.458758 0.3977 0.794592
vn 0.458758 0.3977 0.794592
vn 0.458758 0.3977 0.794592
vn -0.458285 0.399876 0.793772
vn -0.458285 0.399876 0.793772
vn -0.458285 0.399876 0.793772
vn -2.59983e-05 -1 1.49307e-05
vn -0.000103167 -1 5.97226e-05
vn -5.1446e-05 -1 2.98613e-05
vn -1.37651e-07 -1 0
vn -5.50604e-07 -1 0
vn -5.50604e-07 -1 0
vn -0.917662 0.397361 0
vn -0.917662 0.397361 0
vn -0.917662 0.397361 0
vn -0.458901 0.397039 -0.79484
vn -0.458901 0.397039 -0.79484
vn -0.458901 0.397039 -0.79484
vn 0.0924736 0.204482 0.974493
vn 0.0960945 0.203766 0.974292
vn 0.0924736 0.204482 0.974493
vn 0.0888515 0.205196 0.97468
vn 0.0842479 0.206088 -0.9749
vn 0.0880504 0.203346 -0.97514
vn 0.0842479 0.206088 -0.9749
vn 0.0804435 0.208827 -0.974639
vn -0.397357 -0.917664 0
vn -0.397357 -0.917664 0
vn -0.397357 -0.917664 0
vn -0.397357 -0.917664 0
f 1//1 2//2 3//3 
f 4//4 2//5 5//6 
f 5//7 2//8 6//9 
f 1//10 3//11 4//12 5//13 6//14 7//15 
f 8//16 9//17 10//18 
f 7//19 2//20 1//21 
f 6//22 2//23 9//24 8//25 
f 2//26 7//27 10//28 9//29 
f 7//30 6//31 8//32 10//33 
