v 1 1 -1
v -1 1 -1
v -1 1 1
v 1 1 1
v 1 -1 1
v -1 -1 1
v -1 -1 -1
v 1 -1 -1
v 2.03578 -1 -3.11275
v 2.03578 1 -2.11275
v 2.90181 -1 -2.61275
v 2.90181 -1 -1.61275
v 2.03578 -1 -1.11275
v 1.16976 -1 -1.61275
v 1.16976 -1 -2.61275
vn -0 1 -0
vn -0 1 -0
vn -0 1 -0
vn -0 1 -0
vn -0 -0 1
vn -0 -0 1
vn -0 -0 1
vn -0 -0 1
vn -1 -0 -0
vn -1 -0 -0
vn -1 -0 -0
vn -1 -0 -0
vn -0 -1 -0
vn -0 -1 -0
vn -0 -1 -0
vn -0 -1 -0
vn 1 -0 -0
vn 1 -0 -0
vn 1 -0 -0
vn 1 -0 -0
vn -0 -0 -1
vn -0 -0 -1
vn -0 -0 -1
vn -0 -0 -1
vn 0.4588 0.3974 -0.7947
vn 0.4588 0.3974 -0.7947
vn 0.4588 0.3974 -0.7947
vn 0.9177 0.3974 -0
vn 0.9177 0.3974 -0
vn 0.9177 0.3974 -0
vn 0.4588 0.3974 0.7947
vn 0.4588 0.3974 0.7947
vn 0.4588 0.3974 0.7947
vn -0.4588 0.3974 0.7947
vn -0.4588 0.3974 0.7947
vn -0.4588 0.3974 0.7947
vn -0 -1 -0
vn -0 -1 -0
vn -0 -1 -0
vn -0 -1 -0
vn -0 -1 -0
vn -0 -1 -0
vn -0.9177 0.3974 -0
vn -0.9177 0.3974 -0
vn -0.9177 0.3974 -0
vn -0.4588 0.3974 -0.7947
vn -0.4588 0.3974 -0.7947
vn -0.4588 0.3974 -0.7947
f 1//1 2//2 3//3 4//4 
f 5//5 4//6 3//7 6//8 
f 6//9 3//10 2//11 7//12 
f 7//13 8//14 5//15 6//16 
f 8//17 1//18 4//19 5//20 
f 7//21 2//22 1//23 8//24 
f 9//25 10//26 11//27 
f 11//28 10//29 12//30 
f 12//31 10//32 13//33 
f 13//34 10//35 14//36 
f 9//37 11//38 12//39 13//40 14//41 15//42 
f 14//43 10//44 15//45 
f 15//46 10//47 9//48 
